<svg width="34" height="34" viewBox="0 0 34 34" fill="none" xmlns="http://www.w3.org/2000/svg">
  <path d="M7.8909 0.00188849C5.79819 0.00202424 3.79124 0.833444 2.31152 2.31326C0.831802 3.79308 0.000511855 5.80008 0.000511855 7.89279C0.000511855 9.9855 0.831802 11.9925 2.31152 13.4723C3.79124 14.9521 5.79819 15.7836 7.8909 15.7837H15.7856V7.89279C15.7851 5.79982 14.9533 3.79274 13.4732 2.31296C11.993 0.833188 9.98576 0.00188843 7.89279 0.00188849H7.8909ZM34 7.89279C34 5.79949 33.1684 3.79193 31.6883 2.31174C30.2081 0.831559 28.2005 0 26.1072 0C24.0139 0 22.0063 0.831559 20.5262 2.31174C19.046 3.79193 18.2144 5.79949 18.2144 7.89279V15.7837H26.1091C28.2019 15.7837 30.209 14.9523 31.6888 13.4725C33.1686 11.9927 34 9.98559 34 7.89279ZM0 26.1072C0 28.2003 0.83146 30.2076 2.31147 31.6876C3.79148 33.1676 5.7988 33.9991 7.89184 33.9991C9.98489 33.9991 11.9922 33.1676 13.4722 31.6876C14.9522 30.2076 15.7837 28.2003 15.7837 26.1072V18.2163H7.8909C5.7981 18.2163 3.79102 19.0477 2.31119 20.5275C0.83136 22.0073 8.80577e-09 24.0144 0 26.1072ZM26.1053 18.2163H18.2106V26.1072C18.2106 28.2005 19.0422 30.2081 20.5224 31.6883C22.0026 33.1684 24.0101 34 26.1034 34C28.1967 34 30.2043 33.1684 31.6845 31.6883C33.1647 30.2081 33.9962 28.2005 33.9962 26.1072C33.9967 25.0708 33.793 24.0445 33.3966 23.0869C33.0002 22.1293 32.419 21.2592 31.6861 20.5264C30.9533 19.7936 30.0832 19.2123 29.1256 18.816C28.168 18.4196 27.1417 18.2158 26.1053 18.2163Z" fill="#BECAD9"/>
</svg>

