<svg width="26" height="34" viewBox="0 0 26 34" fill="none" xmlns="http://www.w3.org/2000/svg">
  <path fill-rule="evenodd" clip-rule="evenodd" d="M0.5 13.3474C0.5 6.45491 6.1075 0.847412 13 0.847412C19.8925 0.847412 25.5 6.45491 25.5 13.3474C25.5 17.6837 22.82 20.6562 22.7062 20.7812C21.53 22.0612 20.5 24.7099 20.5 26.4499V28.6249C20.5 31.3824 18.2575 33.6249 15.5 33.6249H10.5C7.7425 33.6249 5.5 31.3824 5.5 28.6249V26.4499C5.5 24.7124 4.46875 22.0624 3.29375 20.7812C3.18125 20.6574 0.5 17.6849 0.5 13.3474ZM9.25 27.4999C9.25 28.1912 9.81 28.7499 10.5 28.7499H15.5C16.1912 28.7499 16.75 28.1912 16.75 27.4999C16.75 26.8087 16.1912 26.2499 15.5 26.2499H10.5C9.81 26.2499 9.25 26.8087 9.25 27.4999Z" fill="#BECAD9"/>
</svg>

